<svg>

    <symbol id="service-1" viewBox="0 0 191 191" fill="none" xmlns="http://www.w3.org/2000/svg">
    <g clip-path="url(#clip0_62_20)">
    <path d="M97.2428 191C95.1088 190.146 94.2551 188.515 94.2551 186.031C94.3263 153.111 94.3263 120.19 94.2551 87.2699C94.2551 83.6984 96.2469 82.0679 98.9501 82.2232C100.017 82.3008 101.155 82.2232 102.293 82.2232C102.863 82.7667 102.649 83.4655 102.649 84.1642C102.649 95.3447 102.649 106.603 102.649 117.783C102.649 137.349 102.649 156.915 102.649 176.559C102.649 177.257 102.578 177.956 102.791 178.577C103.361 180.208 103.716 180.518 105.495 180.518C113.035 180.518 120.647 180.518 128.187 180.518C128.756 180.518 129.396 180.441 129.965 180.596C130.534 180.829 130.463 181.295 130.392 181.761C130.321 182.848 130.677 183.702 131.53 184.168C132.384 184.633 133.238 184.556 134.02 183.857C134.945 183.081 135.941 182.226 136.866 181.372C137.292 180.984 137.719 180.596 138.288 180.518C138.928 180.441 139.569 180.441 140.138 180.441C148.318 180.441 156.499 180.441 164.68 180.441C166.387 180.441 168.165 180.596 169.517 179.043C170.086 179.431 169.944 180.052 169.944 180.518C169.944 182.459 169.944 184.4 169.944 186.419C169.944 189.137 169.09 190.301 166.743 190.922C143.552 191 120.433 191 97.2428 191Z" fill="#0F81AD"/>
    <path d="M166.743 191C167.596 190.457 168.592 190.224 169.09 189.137C169.375 188.515 169.659 187.817 169.659 187.118C169.659 184.478 169.659 181.838 169.659 179.198C169.304 178.81 169.304 178.344 169.304 177.878C169.304 165.922 169.304 153.965 169.304 142.008C169.304 141.852 169.304 141.775 169.304 141.62C169.375 140.921 169.659 140.3 170.086 139.756C172.362 136.65 174.639 133.545 176.915 130.439C177.128 130.128 177.413 129.818 177.769 129.818C177.769 133.312 177.769 136.806 177.769 140.3C177.769 155.44 177.698 170.58 177.84 185.72C177.84 188.205 177.2 189.991 175.137 191.078C172.362 191 169.588 191 166.743 191Z" fill="#2464B3"/>
    <path d="M177.84 129.818C174.994 133.467 172.291 137.194 169.659 140.921C168.734 142.939 167.312 144.492 166.031 146.2C160.838 153.344 155.574 160.487 150.31 167.552C148.745 169.648 147.18 171.822 145.615 173.919C145.402 174.229 145.188 174.462 144.904 174.617C144.05 174.462 143.481 173.763 142.912 173.22C140.849 171.279 138.573 169.571 136.581 167.552C136.439 167.009 136.794 166.698 137.079 166.31C144.406 156.216 151.875 146.2 159.273 136.185C162.688 131.526 166.174 126.867 169.517 122.131C171.082 120.035 172.576 118.016 174.141 115.92C174.496 115.454 174.781 114.833 175.35 114.6C176.559 115.066 177.342 116.153 178.338 116.929C179.832 118.172 181.254 119.491 182.748 120.734C183.033 120.967 183.46 121.2 183.531 121.665C182.037 124.15 180.116 126.324 178.48 128.731C178.267 129.119 178.053 129.43 177.84 129.818Z" fill="#FF9C00"/>
    <path d="M117.09 82.1456C117.445 78.3411 119.508 76.3224 123.065 76.3224C123.919 76.3224 124.844 76.3224 125.697 76.3224C127.333 76.2447 128.4 75.2354 128.614 73.4496C129.183 68.9464 131.175 67.2382 135.301 67.4712C135.727 67.937 135.585 68.5582 135.585 69.1016C135.585 71.2756 135.585 73.4496 135.585 75.6236C135.585 78.1082 136.51 79.1175 138.786 79.1951C139.64 79.1951 140.494 79.1951 141.347 79.1951C143.979 79.1951 146.184 80.9809 146.825 83.8537C147.18 85.3289 147.465 86.8817 146.682 88.4346C146.256 88.6675 145.829 88.6675 145.402 88.6675C137.008 88.6675 128.614 88.6675 120.149 88.6675C118.086 88.6675 116.948 87.5805 116.734 85.7171C116.663 84.7077 116.592 83.6984 116.805 82.689C116.948 82.4561 117.019 82.3008 117.09 82.1456Z" fill="#FF9C00"/>
    <path d="M175.421 114.755C173.501 117.24 171.651 119.802 169.73 122.287C169.161 121.743 169.304 120.967 169.304 120.268C169.304 111.339 169.304 102.333 169.304 93.4037C169.304 90.3756 169.304 87.2699 169.304 84.2419C169.304 83.6984 169.232 83.0773 169.446 82.6114C169.517 82.4561 169.588 82.3785 169.73 82.2232C171.153 82.2232 172.505 82.1456 173.927 82.2232C176.275 82.2232 177.84 84.009 177.84 86.5712C177.84 94.2577 177.84 102.022 177.84 109.709C177.84 110.174 177.84 110.64 177.84 111.184C177.911 111.339 177.982 111.572 177.84 111.727C177.129 112.737 176.559 113.979 175.421 114.755Z" fill="#2464B3"/>
    <path d="M146.825 88.124C146.753 86.1829 147.109 84.2419 146.113 82.4561C145.046 80.5927 143.695 79.3504 141.561 79.4281C140.565 79.4281 139.569 79.4281 138.573 79.4281C136.368 79.3504 135.301 78.1858 135.301 75.8565C135.301 73.0614 135.301 70.2663 135.301 67.3935C136.439 67.3935 137.506 67.3159 138.644 67.3935C141.134 67.4712 143.339 69.9557 143.481 72.6732C143.623 75.2354 144.548 76.1671 146.896 76.1671C147.678 76.1671 148.461 76.1671 149.243 76.1671C152.587 76.2447 154.721 78.3411 155.076 82.0679C155.147 82.2232 155.219 82.3008 155.29 82.4561C155.432 83.4655 155.432 84.5525 155.361 85.5618C155.219 87.037 154.365 88.2016 153.013 88.3569C151.164 88.5899 149.314 88.5122 147.394 88.4346C147.18 88.5122 146.967 88.3569 146.825 88.124Z" fill="#FF9C00" fill-opacity="0.6"/>
    <path d="M175.421 114.755C176.275 113.591 177.057 112.348 177.911 111.184C179.191 109.709 180.33 108.078 181.468 106.448C183.246 103.963 186.518 103.342 188.866 105.205C191.213 107.069 191.782 110.64 189.933 113.202C187.941 116.075 185.807 118.87 183.744 121.665C183.673 121.743 183.602 121.743 183.531 121.743C180.756 119.569 178.124 117.085 175.421 114.755Z" fill="#FBC3AC"/>
    <path d="M117.09 82.1455C117.09 82.2232 117.09 82.3008 117.09 82.3785C116.592 82.8443 115.952 82.7667 115.382 82.7667C111.826 82.7667 108.198 82.7667 104.641 82.7667C102.863 82.7667 102.863 82.7667 102.863 84.7077C102.863 115.144 102.863 145.579 102.863 176.015C102.863 176.947 103.076 177.878 102.507 178.655C102.222 178.111 102.365 177.568 102.365 177.024C102.365 145.967 102.365 114.911 102.365 83.8537C102.365 83.3102 102.293 82.7667 102.293 82.1455C107.202 82.2232 112.181 82.1455 117.09 82.1455Z" fill="#C4D7E1"/>
    <path d="M155.076 82.3785C155.076 82.3008 155.076 82.2232 155.076 82.1455C159.985 82.1455 164.822 82.1455 169.73 82.2232C169.73 82.3008 169.73 82.3785 169.659 82.4561C169.232 82.8443 168.734 82.8443 168.165 82.8443C164.253 82.8443 160.412 82.8443 156.499 82.8443C156.001 82.7667 155.503 82.8443 155.076 82.3785Z" fill="#C4D7E1"/>
    <path d="M155.076 82.3785C159.914 82.3785 164.822 82.3785 169.659 82.3785C169.659 85.7947 169.659 89.211 169.73 92.6273C169.73 102.488 169.73 112.348 169.73 122.287C166.6 126.557 163.47 130.827 160.34 135.098C152.515 145.735 144.619 156.449 136.794 167.086C136.723 167.241 136.652 167.319 136.581 167.474C136.652 167.785 136.51 168.096 136.368 168.406C134.589 172.133 133.024 176.015 131.246 179.82C131.032 180.285 130.89 180.907 130.25 180.907C121.927 180.907 113.604 180.907 105.281 180.907C103.645 180.907 102.934 180.363 102.578 178.733C102.578 178.189 102.649 177.723 102.649 177.18C102.649 146.123 102.649 115.066 102.649 84.0866C102.649 82.4561 102.649 82.4561 104.143 82.4561C108.482 82.4561 112.822 82.4561 117.232 82.4561C117.232 83.3102 117.232 84.2419 117.303 85.096C117.303 87.1147 118.299 88.2017 120.149 88.2017C124.132 88.2017 128.187 88.2017 132.171 88.2017C137.079 88.2017 142.058 88.2017 146.967 88.2017C148.816 88.2017 150.666 88.2793 152.587 88.2017C154.08 88.2017 155.148 87.037 155.148 85.4065C155.076 84.3972 155.076 83.3878 155.076 82.3785Z" fill="#F7F0F0"/>
    <path d="M144.762 174.618C152.729 163.748 160.767 152.878 168.734 142.008C169.019 141.62 169.304 141.309 169.588 140.921C169.588 141.387 169.659 141.775 169.659 142.241C169.659 153.887 169.659 165.533 169.659 177.18C169.659 177.801 169.588 178.5 169.588 179.121C168.948 180.441 167.952 180.907 166.6 180.907C156.997 180.829 147.465 180.829 137.861 180.829C137.79 180.441 138.004 180.208 138.217 180.052C140.138 178.344 142.058 176.636 144.05 174.928C144.335 174.773 144.548 174.695 144.762 174.618Z" fill="#F7F0F0"/>
    <path d="M144.762 174.617C142.699 176.481 140.636 178.344 138.644 180.13C138.359 180.363 138.146 180.596 137.933 180.829C136.723 181.916 135.443 182.925 134.234 184.012C133.38 184.789 131.957 184.944 131.175 184.323C130.179 183.624 129.894 182.615 130.179 181.217C130.179 181.139 130.179 180.984 130.179 180.829C130.606 180.518 130.677 180.052 130.89 179.664C132.811 175.627 134.66 171.512 136.581 167.474C139.426 169.726 142.058 172.211 144.762 174.617Z" fill="#567A82"/>
    <path d="M146.753 131.06C142.983 131.06 139.142 131.06 135.372 131.06C134.803 131.06 134.162 131.06 133.664 130.672C133.166 130.284 132.953 129.663 133.024 128.964C133.095 128.265 133.451 127.799 134.02 127.489C134.447 127.256 134.945 127.256 135.443 127.256C142.983 127.256 150.595 127.256 158.135 127.256C158.277 127.256 158.42 127.256 158.562 127.256C159.842 127.333 160.554 128.032 160.554 129.197C160.554 130.284 159.771 130.983 158.633 131.06C156.57 131.06 154.578 131.06 152.515 131.06C150.595 131.06 148.674 131.06 146.753 131.06Z" fill="#796F7A"/>
    <path d="M146.753 109.01C150.524 109.01 154.365 109.01 158.135 109.01C158.633 109.01 159.131 109.01 159.558 109.243C160.198 109.631 160.554 110.174 160.554 110.951C160.554 111.727 160.127 112.348 159.416 112.581C158.989 112.737 158.562 112.737 158.135 112.737C150.524 112.737 142.912 112.737 135.372 112.737C133.949 112.737 133.238 112.271 133.095 111.184C132.882 109.864 133.664 108.932 135.158 108.932C139 108.932 142.912 109.01 146.753 109.01Z" fill="#796F7A"/>
    <path d="M146.825 104.429C142.841 104.429 138.857 104.429 134.874 104.429C133.878 104.429 133.238 103.963 133.095 102.876C132.953 101.867 133.38 101.168 134.234 100.857C134.447 100.78 134.731 100.78 135.016 100.78C142.841 100.78 150.737 100.78 158.562 100.78C159.842 100.78 160.554 101.556 160.554 102.643C160.554 103.73 159.771 104.429 158.491 104.429C154.578 104.429 150.666 104.429 146.825 104.429Z" fill="#796F7A"/>
    <path d="M117.872 166.931C117.161 166.853 116.521 166.698 115.952 166.154C114.742 164.99 113.462 163.748 112.253 162.583C111.399 161.729 111.328 160.564 111.968 159.788C112.679 158.934 113.604 158.934 114.529 159.788C115.454 160.642 116.45 161.574 117.303 162.505C117.73 162.971 117.943 162.893 118.299 162.35C119.793 160.021 121.287 157.691 122.781 155.362C122.923 155.129 123.136 154.819 123.279 154.586C123.99 153.732 124.844 153.499 125.626 154.12C126.409 154.741 126.622 155.75 126.053 156.76C124.772 158.856 123.421 160.875 122.14 162.893C121.571 163.748 121.002 164.679 120.433 165.533C119.864 166.543 118.939 166.931 117.872 166.931Z" fill="#FAA61B"/>
    <path d="M117.943 112.814C117.09 112.892 116.378 112.504 115.809 111.96C114.671 110.873 113.462 109.709 112.324 108.622C111.399 107.69 111.257 106.603 111.968 105.749C112.679 104.895 113.604 104.895 114.6 105.826C115.383 106.603 116.236 107.379 117.019 108.156C117.659 108.854 118.015 109.01 118.584 108C119.935 105.671 121.5 103.42 122.923 101.168C123.065 100.935 123.207 100.702 123.35 100.469C123.99 99.615 124.986 99.4598 125.697 100.081C126.48 100.78 126.693 101.634 126.124 102.565C124.203 105.594 122.283 108.622 120.291 111.65C119.793 112.504 118.939 112.892 117.943 112.814Z" fill="#FAA61B"/>
    <path d="M117.943 136.185C119.722 133.389 121.5 130.672 123.279 127.954C123.919 126.945 124.986 126.712 125.768 127.333C126.551 127.954 126.764 128.964 126.195 129.896C124.275 132.924 122.425 135.952 120.433 138.902C119.366 140.455 117.374 140.61 116.023 139.368C114.742 138.203 113.462 136.961 112.181 135.719C111.47 135.02 111.399 133.855 111.968 133.079C112.608 132.225 113.604 132.147 114.387 132.924C115.596 133.933 116.734 135.098 117.943 136.185Z" fill="#FAA61B"/>
    <path d="M140.778 139.368C138.857 139.368 136.937 139.368 135.016 139.368C133.736 139.368 133.024 138.669 133.024 137.504C133.024 136.417 133.736 135.719 134.945 135.719C138.786 135.719 142.699 135.719 146.54 135.719C147.749 135.719 148.39 136.417 148.39 137.582C148.39 138.669 147.678 139.368 146.469 139.446C144.619 139.368 142.699 139.368 140.778 139.368Z" fill="#796F7A"/>
    <path d="M102.247 113.013C108.254 114.813 114.334 116.379 120.195 118.492C131.989 122.798 138.802 131.565 140.634 144.794C140.927 146.829 140.927 148.865 140.927 150.9C140.927 163.659 140.927 176.341 141 189.1C141 190.822 140.707 191.527 138.876 191.449C131.623 191.292 124.371 191.37 117.118 191.37C116.459 190.509 116.532 189.492 116.532 188.552C116.532 184.09 116.532 179.707 116.532 175.245C116.532 174.462 116.752 173.366 115.726 173.053C114.627 172.74 113.382 172.583 112.283 173.21C111.624 173.601 111.77 174.54 111.77 175.245C111.77 179.707 111.77 184.09 111.77 188.552C111.77 189.57 111.917 190.588 111.184 191.37C101.221 191.37 91.2583 191.37 81.2953 191.37C80.7825 190.822 80.636 190.118 80.4895 189.413C78.7313 176.889 76.8998 164.364 75.0684 151.839C74.8486 150.43 75.0684 149.256 75.8742 148.082C77.0464 146.438 77.7789 144.481 79.3173 143.15C79.7569 142.994 80.1232 143.15 80.2697 143.463C81.2953 145.107 81.9546 144.324 82.6872 143.15C88.2547 133.992 94.1886 125.068 99.7561 115.987C100.562 114.891 101.148 113.717 102.247 113.013Z" fill="#EEEFF1"/>
    <path d="M57.6332 191.37C47.6702 191.37 37.7072 191.37 27.7442 191.37C27.0849 190.509 27.1582 189.492 27.1582 188.552C27.1582 184.09 27.1582 179.707 27.1582 175.245C27.1582 174.462 27.3779 173.366 26.3523 173.053C25.2535 172.74 24.0081 172.583 22.9092 173.21C22.2499 173.601 22.3964 174.54 22.3964 175.245C22.3964 179.707 22.3964 184.09 22.3964 188.552C22.3964 189.57 22.5429 190.588 21.8104 191.37C14.4846 191.37 7.15892 191.292 -0.166813 191.449C-1.77847 191.449 -2.0715 190.823 -2.0715 189.257C-1.99825 175.401 -2.14476 161.546 -1.99825 147.69C-1.92499 140.567 0.492503 134.226 4.66817 128.59C9.21012 122.563 15.2172 119.197 22.1034 117.318C27.0116 115.987 31.8466 114.422 36.6816 112.934C38.0002 113.952 38.8061 115.518 39.6852 116.927C45.0329 125.616 50.6005 134.07 55.9483 142.759C57.0471 144.638 57.1204 144.559 58.8053 143.229C59.0251 143.072 59.2449 143.072 59.5379 143.15C61.3693 144.872 62.4682 147.221 63.7136 149.413C64.0798 149.961 63.9333 150.665 63.8601 151.37C62.1019 164.129 60.1972 176.81 58.3658 189.57C58.2925 190.275 58.0727 190.901 57.6332 191.37Z" fill="#EEEFF1"/>
    <path d="M102.32 41.7782C103.419 41.8565 104.518 41.6216 105.617 42.013C108.694 42.9524 110.452 45.7704 110.012 49.293C109.792 51.3283 109.426 53.2853 108.987 55.3206C108.254 58.8431 106.642 60.4087 103.346 60.8784C102.467 61.035 102.247 61.3481 102.174 62.2092C101.514 74.0294 96.6793 83.3446 87.5222 90.0767C87.4489 90.155 87.3756 90.2332 87.3024 90.3898C86.9361 91.1726 86.2768 91.7205 85.5442 92.1119C75.2882 97.7481 64.9589 97.9829 54.5564 92.7382C53.4575 92.1902 52.2854 91.6423 51.6261 90.3898C47.2306 87.1021 43.5678 83.0315 40.8573 78.0216C38.2933 73.2466 37.1211 68.1584 36.6816 62.7571C36.6083 61.5829 36.5351 60.8784 35.1432 60.8001C32.4327 60.5653 30.528 58.53 29.9419 55.6337C29.5024 53.5201 29.1361 51.4066 28.8431 49.2147C28.3303 44.9094 31.0408 41.7782 35.0699 41.6999C35.5827 41.6999 36.0955 41.6999 36.5351 41.6999C37.0479 42.0913 37.1211 42.7175 37.1211 43.3438C37.1944 47.884 37.1944 52.5025 37.1211 57.0427C37.1211 57.7472 37.1211 58.6083 36.7549 59.078C37.927 54.2246 39.6851 49.4496 41.1503 44.5963C42.1026 41.3868 42.3224 41.2302 45.4725 41.2302C56.0215 41.2302 66.5706 41.2302 77.1196 41.2302C82.5407 41.2302 86.6431 39.0384 88.8408 33.5588C89.5001 31.9932 90.5257 31.6018 91.9908 31.6801C94.7746 31.915 97.1921 34.1068 97.8514 37.238C99.2433 44.1266 101.002 51.0152 101.954 58.0603C102.027 58.3735 101.954 58.7649 102.174 58.9214C101.807 57.8255 101.734 56.573 101.734 55.3206C101.661 51.5631 101.734 47.7274 101.734 43.97C101.734 43.1872 101.661 42.3261 102.32 41.7782Z" fill="#FDD3B4"/>
    <path d="M102.32 41.7782C102.32 47.6492 102.32 53.4418 102.32 59.3128C102.174 59.3128 102.1 59.3128 101.954 59.3911C101.075 55.0857 100.196 50.8586 99.2434 46.5532C98.584 43.5003 97.998 40.4474 97.3387 37.4728C96.6061 34.1851 94.0421 32.1498 90.9653 32.2281C90.1595 32.2281 89.7932 32.5412 89.5001 33.324C87.3024 39.1167 83.2 41.7782 77.4859 41.7782C66.4241 41.7782 55.3622 41.7782 44.3736 41.7782C42.9818 41.7782 42.469 42.2479 42.0294 43.5786C40.4177 48.9799 38.7328 54.3812 36.6084 59.7042C36.6084 53.755 36.6084 47.7274 36.6084 41.7782C36.9014 37.0031 36.3886 32.2281 36.9747 27.453C38.6596 14.0672 49.5017 2.40358 62.0287 0.75971C67.816 -0.0230853 73.6766 0.211753 79.4639 0.524872C84.1524 0.75971 87.5222 3.73433 89.2804 8.43111C89.7199 9.52702 90.1595 9.84014 91.2583 9.9967C97.6317 10.7012 102.1 16.0242 102.1 22.8345C102.32 29.1752 102.32 35.4375 102.32 41.7782Z" fill="#2464B3"/>
    <path d="M57.6332 191.37C58.9518 182.212 60.2704 173.053 61.5891 163.894C62.2484 159.511 62.8344 155.205 63.4205 150.822C63.4938 150.43 63.4938 149.961 63.274 149.726C61.8821 147.612 60.7832 145.186 59.0251 143.229C58.0727 142.446 57.2669 141.506 57.3401 140.097C60.8565 135.087 64.5926 130.391 68.1822 125.459C68.402 125.146 68.695 124.911 69.0613 124.755C69.9404 124.52 70.4532 125.146 70.8927 125.772C74.4091 130.547 78.072 135.244 81.515 140.097C81.5883 141.506 80.7825 142.446 79.8301 143.229C78.1452 145.186 76.8998 147.456 75.6545 149.726C74.9952 150.9 75.7277 152.309 75.8742 153.561C77.6324 166.164 79.4638 178.767 81.2953 191.37C73.4568 191.37 65.545 191.37 57.6332 191.37Z" fill="#FF9C00"/>
    <path d="M51.6261 90.3898C55.4355 92.8165 59.5379 94.6952 63.9333 95.478C71.9183 96.8088 79.4639 95.3997 86.4966 90.8595C86.7896 90.703 87.0826 90.5464 87.3024 90.3898C87.3024 94.3821 87.3024 98.2961 87.3756 102.288C87.0826 104.089 85.6175 105.106 84.6651 106.359C80.4162 111.76 76.094 117.083 71.7718 122.484C71.1125 123.346 70.5265 124.52 69.1346 124.363C66.5706 122.328 64.8856 119.432 62.7612 116.927C59.3181 112.7 55.875 108.394 52.5052 104.089C52.0656 103.541 51.4063 103.149 51.6261 102.288C51.6261 98.2961 51.6261 94.3038 51.6261 90.3898Z" fill="#FBB98B"/>
    <path d="M69.1346 124.207C71.2591 123.502 72.0649 121.31 73.3835 119.745C78.1453 114.03 82.7605 108.159 87.3757 102.367C91.3316 105.654 95.2875 109.02 99.2434 112.308C99.5364 113.169 98.9503 113.717 98.584 114.265C93.2362 122.484 88.1815 130.86 82.8337 139.08C82.4674 139.628 82.2477 140.489 81.2953 140.254C78.072 136.575 75.3615 132.348 72.2847 128.59C71.2591 127.338 70.7463 125.537 68.9881 125.068C68.9148 124.676 68.9148 124.441 69.1346 124.207Z" fill="#EEEFF1"/>
    <path d="M69.1346 124.207C69.1346 124.441 69.1346 124.676 69.1346 124.911C65.3985 130.078 61.6624 135.244 57.6332 140.176C56.7541 140.41 56.4611 139.549 56.0948 139.001C50.747 130.782 45.6923 122.406 40.3445 114.187C39.9782 113.639 39.3921 113.091 39.6852 112.23C43.6411 108.942 47.597 105.576 51.5528 102.288C57.4134 109.568 63.274 116.848 69.1346 124.207Z" fill="#EEEFF1"/>
    <path d="M39.6852 112.23C45.2527 120.997 50.747 129.764 56.3146 138.532C56.6808 139.08 56.9006 139.862 57.6332 140.176C57.7065 141.428 58.9518 142.054 59.0983 143.307C58.9518 143.62 58.8053 144.011 58.5855 144.324C57.853 145.499 57.3402 145.89 56.3878 144.324C50.6005 135.087 44.8132 126.007 39.0258 116.848C38.22 115.596 37.2677 114.5 36.6816 113.013C37.7072 112.778 38.6596 112.465 39.6852 112.23Z" fill="#D3D3D3"/>
    <path d="M81.3685 140.176C83.6395 137.514 85.2512 134.383 87.1559 131.487C91.3315 125.146 95.2874 118.649 99.3166 112.308C100.269 112.543 101.295 112.856 102.247 113.091C98.6573 118.884 95.0677 124.598 91.478 130.391C88.6943 134.774 85.9838 139.158 83.2 143.542C81.5883 146.125 81.3685 146.125 79.9767 143.307C80.0499 142.054 81.222 141.35 81.3685 140.176Z" fill="#D3D3D3"/>
    <path d="M21.8104 191.449C21.8104 185.734 21.8104 179.942 21.7371 174.227C21.7371 172.74 22.1767 172.348 23.5685 172.348C27.7442 172.348 27.7442 172.348 27.7442 176.81C27.7442 181.664 27.7442 186.595 27.7442 191.449C25.7663 191.449 23.7883 191.449 21.8104 191.449Z" fill="#2464B3"/>
    <path d="M111.184 191.449C111.184 185.734 111.184 179.942 111.111 174.227C111.111 172.74 111.551 172.348 112.942 172.348C117.118 172.348 117.118 172.348 117.118 176.81C117.118 181.664 117.118 186.595 117.118 191.449C115.14 191.449 113.162 191.449 111.184 191.449Z" fill="#2464B3"/>
    </g>
    <defs>
    <clipPath id="clip0_62_20">
    <rect fill="white"/>
    </clipPath>
    </defs>
    </symbol>

    <symbol id="service-2" viewBox="0 0 191 191" fill="none" xmlns="http://www.w3.org/2000/svg">
    <g clip-path="url(#clip0_66_58)">
    <path d="M9.5686 101.891C9.5686 76.4207 9.5686 51.0037 9.5686 25.5335C10.5255 24.5232 11.8013 24.8954 12.9708 24.8422C31.7359 24.8422 50.501 24.8422 69.2129 24.8422C77.8778 24.8422 86.5959 24.8422 95.2608 24.8422C97.9719 24.8422 98.025 24.7358 98.0782 22.0772C98.1314 18.8867 97.8124 15.6963 98.5566 12.5591C99.7261 7.50756 102.49 3.62588 107.222 1.28624C108.657 0.594977 110.145 0.116413 111.793 0.382282C114.823 -0.255803 117.747 -0.0962816 120.618 1.17989C120.139 4.90205 120.192 8.67738 119.608 12.3995C117.8 24.3636 113.547 35.3706 107.115 45.5799C102.916 52.2798 97.9719 58.448 92.3902 63.9781C83.1937 73.0708 72.7746 80.7278 61.3986 86.9491C60.9733 87.1618 60.548 87.3745 60.0696 87.3213C58.7406 86.7896 57.3585 86.311 55.87 86.311C54.9132 86.311 54.1158 85.7793 53.3716 85.1944C51.2452 83.4396 48.7999 82.8016 46.1419 83.546C45.0256 83.865 44.1219 83.8118 43.4308 82.642C40.3476 77.0056 32.9585 74.6128 26.0479 79.4516C22.9115 81.6849 20.7851 84.6626 19.9878 88.438C19.8814 88.8102 19.8283 89.2356 19.7751 89.6078C19.6688 91.3625 20.5193 92.6387 22.0078 92.8514C23.5494 93.0641 24.7189 92.2133 24.9847 90.3522C25.4631 87.0554 27.2705 84.8221 30.0348 83.1738C34.447 80.6214 39.1781 83.0674 39.5502 88.1189C39.6566 89.5014 39.7629 90.8308 41.2513 91.4157C42.6866 92.0006 43.803 91.2562 44.813 90.299C45.5572 89.6078 46.3546 89.076 47.3646 88.8102C49.3315 88.2784 51.0326 89.5546 51.0857 91.6284C49.2252 93.3299 46.833 93.968 44.5472 94.8188C36.0417 98.1156 27.2705 100.615 18.1803 101.785C16.1603 102.05 14.1403 102.316 12.0671 102.369C11.1634 102.423 10.2597 102.529 9.5686 101.891Z" fill="#E4EFF8"/>
    <path d="M60.0164 87.1618C68.9471 82.1635 77.4525 76.527 85.2669 69.774C94.4102 61.9043 102.225 52.9179 108.338 42.549C113.866 33.1905 117.534 23.1406 119.023 12.2932C119.448 9.10277 119.873 5.91234 119.82 2.66875C119.82 2.03066 119.608 1.28623 120.618 1.12671C125.88 3.41318 129.176 7.34803 130.346 12.9844C130.505 13.7821 130.558 14.5265 130.558 15.3241C130.558 21.4922 130.558 27.6072 130.558 33.7754C130.771 34.6793 130.08 35.1047 129.601 35.5833C128.06 37.1785 126.518 38.6674 124.977 40.2626C121.84 43.453 121.628 45.4204 124.073 49.1958C124.232 49.4616 124.392 49.7807 124.339 50.0997C123.807 51.2164 122.744 51.6417 121.787 52.2267C115.355 56.1083 108.604 59.2988 102.278 63.3931C91.6991 70.1994 83.3 79.0262 77.2931 90.0863C75.4857 93.4363 73.9441 96.8394 72.4025 100.296C72.0835 100.934 71.924 101.678 71.233 102.104C67.0866 102.476 63.6844 104.709 60.1759 106.677C56.4016 108.857 52.7337 111.143 48.6404 112.738C47.152 113.323 45.6635 113.855 44.1219 114.174C43.2182 114.44 42.3145 114.865 41.3576 114.28C40.9324 113.802 40.8792 113.217 40.6666 112.685C39.6034 110.133 37.7428 108.75 34.9254 108.75C33.7559 108.75 32.5864 108.75 31.4169 108.803C25.0379 108.857 18.6056 108.857 12.2266 108.803C11.3229 108.803 10.366 108.91 9.62177 108.112C9.62177 106.038 9.62177 103.912 9.67492 101.838C18.2867 101.731 26.6326 100.083 34.8723 97.5838C40.4539 95.8823 45.8761 93.968 51.1389 91.4157C51.2984 91.3093 51.511 91.3093 51.7236 91.3625C53.1589 91.8942 54.7005 91.7879 56.189 91.7347C59.3254 91.7347 60.1227 90.8308 59.8569 87.6404C59.8038 87.534 59.8569 87.3213 60.0164 87.1618Z" fill="#C5DCEF"/>
    <path d="M9.51545 108.165C16.9577 108.219 24.3999 108.219 31.8422 108.272C32.3738 108.803 32.3738 109.495 32.3738 110.133C32.4801 121.565 32.6396 132.944 30.3006 144.217C28.759 151.608 26.5263 158.734 21.742 164.795C17.8082 169.794 12.6518 172.399 6.27275 172.452C4.19955 172.452 2.02004 173.037 0.0531589 171.921C0.0531589 159.478 0 147.035 0 134.54C0 128.159 0 121.831 0 115.45C0 110.558 2.39215 108.219 7.33593 108.165C8.08016 108.219 8.82438 108.219 9.51545 108.165Z" fill="#2464B3" fill-opacity="0.6"/>
    <path d="M124.02 50.2061C120.724 45.7926 120.937 43.6125 124.87 39.6245C126.784 37.7102 128.591 35.7428 130.452 33.8285C132.844 31.5421 135.183 29.3088 137.575 27.0223C138.479 26.7564 138.904 27.5009 139.383 27.9794C149.483 38.0293 159.583 48.0791 169.577 58.2353C171.491 60.1495 173.032 62.436 174.149 64.9352C176.488 70.1462 175.956 75.889 171.491 80.0365C168.461 82.8015 165.643 85.7793 162.773 88.757C161.337 88.9697 160.859 87.6404 160.008 86.9491C159.37 86.4174 158.839 85.7793 158.254 85.1412C147.038 74.2406 136.087 63.0741 125.03 52.014C124.604 51.4822 123.967 51.0568 124.02 50.2061Z" fill="#2464B3" fill-opacity="0.6"/>
    <path d="M3.24266 19.0994C2.65792 12.4527 4.41216 6.76313 10.1533 2.7751C12.6518 1.02037 15.4692 0.0100708 18.4993 0.0100708C44.2282 0.0100708 69.9571 0.0100708 95.686 0.0100708C95.8987 0.0100708 96.0582 0.0632445 96.2708 0.0632445C96.7492 1.23307 95.7924 1.7648 95.2608 2.40289C90.9549 7.2417 85.3732 9.84721 79.4194 11.9742C69.585 15.4836 59.2722 17.0257 48.9062 18.1423C34.7127 19.6312 20.5193 19.7907 6.27272 19.6843C5.2627 19.6843 4.14637 19.897 3.24266 19.0994Z" fill="#FF9C00" fill-opacity="0.6"/>
    <path d="M0.0531835 171.921C3.93378 171.761 7.81439 172.293 11.695 171.176C17.0109 169.581 20.732 166.018 23.4963 161.445C27.6958 154.427 29.5032 146.61 30.6727 138.581C32.1612 128.531 31.7359 118.428 31.8422 108.325C32.7991 108.325 33.8091 108.272 34.766 108.272C38.5402 108.272 40.9324 110.452 41.4108 114.28C42.0487 114.972 41.9956 115.876 41.9956 116.726C41.9956 134.912 41.9956 153.15 41.9956 171.336C41.9956 172.559 42.0487 173.888 40.8792 174.739C39.3908 177.238 37.2644 178.302 34.3407 178.302C24.9316 178.195 15.5756 178.302 6.16646 178.248C2.55165 178.248 2.45459e-05 175.537 0.0531835 171.921Z" fill="#2464B3"/>
    <path d="M3.24272 19.0994C9.40915 19.0994 15.5756 19.0463 21.742 19.0994C26.5795 19.1526 31.4169 18.8867 36.2013 18.5677C48.9594 17.7701 61.6644 16.5471 74.0504 13.0908C80.3232 11.3361 86.3833 9.0496 91.5929 5.06157C93.4003 3.67905 95.2077 2.19019 96.2708 0.0632421C101.055 0.0632421 105.893 0.0100684 110.677 0.0100684C111.049 0.0100684 111.474 -0.096279 111.687 0.382284C104.245 1.65845 98.8225 7.98613 98.663 15.6963C98.6098 18.355 98.5567 21.0137 98.663 23.6724C98.7162 25.2144 98.2377 25.5335 96.7493 25.5335C82.9811 25.4803 69.2129 25.4803 55.3916 25.4803C40.0819 25.4803 24.7721 25.5335 9.46231 25.5335C7.76123 25.5335 6.06014 25.4271 4.35906 25.4803C3.4022 25.4803 3.08324 25.1612 3.1364 24.2573C3.24272 22.5557 3.24272 20.8542 3.24272 19.0994Z" fill="#FF9C00"/>
    <path d="M162.666 88.7038C162.666 87.8531 163.357 87.4809 163.836 86.9491C166.494 84.2904 169.152 81.5786 171.81 78.9199C175.105 75.6231 175.637 71.6883 174.521 67.3812C173.67 63.9781 171.756 61.0535 169.311 58.6075C158.998 48.2386 148.632 37.9229 138.319 27.5541C138.107 27.3414 137.788 27.1819 137.522 26.9692C138.319 26.1184 139.064 25.1613 139.967 24.3636C142.519 22.1835 146.081 22.5026 148.685 25.1613C162.028 38.4547 175.318 51.7481 188.608 65.0947C191.691 68.1788 191.691 71.6883 188.555 74.8255C183.664 79.7707 178.667 84.6095 173.83 89.6078C171.756 91.7347 169.417 92.6387 166.494 91.8411C164.58 91.7347 163.145 90.7776 162.666 88.7038Z" fill="#2464B3"/>
    <path d="M142.094 121.352C148.42 122.097 151.822 130.445 147.994 135.869C145.868 138.847 142.944 140.229 139.276 140.176C141.669 141.027 143.635 142.356 144.964 144.483C146.346 146.663 146.772 149.056 146.24 151.502C145.071 156.979 141.775 158.84 132.472 159.212C135.289 160.063 137.256 161.445 138.638 163.626C139.967 165.806 140.393 168.199 139.861 170.645C138.798 175.43 135.183 178.195 130.08 178.195C129.601 177.717 129.761 177.079 129.814 176.494C130.027 173.729 130.027 170.964 129.867 168.199C129.548 162.403 124.126 158.574 118.491 160.063C115.567 160.701 113.707 162.562 112.431 165.221C112.165 165.806 112.218 166.71 111.262 166.869C109.986 165.593 109.348 163.998 108.869 162.296C112.537 160.329 116.205 158.308 119.448 155.703C128.645 148.258 134.97 138.793 138.798 127.627C139.542 125.447 139.648 123.054 141.19 121.193C141.562 121.087 141.828 121.14 142.094 121.352Z" fill="#FBB88D"/>
    <path d="M80.0042 190.531C75.6452 188.989 73.253 185.639 73.1998 181.013C73.1998 180.109 73.6251 179.046 72.8277 178.195C72.6151 177.929 72.4556 177.61 72.5088 177.291C72.8277 172.878 72.4025 168.464 72.7746 164.051C73.4125 161.18 74.9009 158.84 77.3462 157.138C78.1968 156.553 79.1005 155.915 80.27 156.234C84.5759 158.361 86.6491 161.765 86.5427 166.55C86.4364 171.495 86.5959 176.494 86.4896 181.439C86.3833 185.746 83.8848 189.149 80.0042 190.531Z" fill="#FBBC8E"/>
    <path d="M60.8669 184.204C57.7306 183.3 55.87 181.013 54.4879 178.248C53.6373 177.557 53.531 176.6 53.4778 175.59C53.4778 173.356 53.4247 171.176 53.4778 168.943C53.4778 165.646 53.4247 162.296 53.4778 158.999C53.5842 155.171 55.551 152.406 58.6874 150.385C59.3253 150.013 59.9632 149.747 60.7606 149.8C65.1197 151.768 67.3523 155.065 67.2992 159.903C67.246 165.008 67.3523 170.06 67.2992 175.164C67.2992 179.418 64.8007 182.821 60.8669 184.204Z" fill="#FBBC8E"/>
    <path d="M99.0882 190.531C96.1645 189.627 94.1444 187.713 92.9749 184.895C92.8155 184.47 92.4965 184.097 92.2839 183.725C91.8586 183.14 91.7523 182.502 91.7523 181.864C91.6991 176.972 91.5396 172.133 91.8054 167.241C92.4433 164.37 93.9318 162.03 96.3771 160.382C97.2277 159.797 98.1314 159.212 99.3008 159.478C103.607 161.605 105.733 164.955 105.627 169.794C105.52 173.675 105.68 177.61 105.574 181.492C105.467 185.746 103.022 189.149 99.0882 190.531Z" fill="#FBBC8E"/>
    <path d="M162.666 88.7038C163.676 90.0864 165.005 91.203 166.547 91.9474C162.879 96.9458 159.158 101.997 155.49 106.996C154.905 107.421 154.48 107.049 154.161 106.623C151.662 102.848 147.994 102.05 143.795 102.423C143.582 102.423 143.423 102.423 143.21 102.423C139.808 102.369 136.406 102.635 133.057 102.263C132.632 102.05 132.1 101.891 132.632 101.306C133.004 100.881 133.535 100.721 134.014 100.562C142.519 97.0521 150.227 92.3728 156.606 85.6198C157.085 85.088 157.616 84.2904 158.573 84.769C159.955 86.0451 161.337 87.3745 162.666 88.7038Z" fill="#F9A367"/>
    <path d="M54.1158 168.677C54.3284 171.868 53.6905 175.058 54.5411 178.195C49.8099 177.717 45.2914 176.6 40.9324 174.686C41.3576 173.356 41.464 171.974 41.464 170.591C41.464 152.565 41.464 134.593 41.464 116.567C41.464 115.769 41.5171 114.972 41.5171 114.174C42.4208 114.015 43.3245 113.855 44.2282 113.695C45.1319 113.802 45.1319 114.546 45.1851 115.184C45.2914 116.035 45.2382 116.886 45.2382 117.79C45.2382 133.104 45.2382 148.365 45.2382 163.679C45.2382 164.317 45.2382 165.008 45.2382 165.646C45.2914 167.72 45.504 167.933 47.5241 167.986C48.9062 168.039 50.2883 167.986 51.6705 167.986C52.521 168.092 53.3716 168.092 54.1158 168.677Z" fill="#FBB88D"/>
    <path d="M111.368 166.71C112.325 163.998 113.707 161.711 116.365 160.329C116.95 160.01 117.428 159.531 118.119 159.957C119.235 159.744 120.033 160.329 120.83 160.967C123.276 163.041 124.658 165.646 124.658 168.943C124.658 171.017 124.711 173.037 124.658 175.111C124.551 179.365 122.159 182.768 118.172 184.204C115.621 183.459 113.866 181.758 112.484 179.578C112.218 179.099 112.272 178.302 111.421 178.355C111.102 178.089 110.89 177.717 110.89 177.344C110.677 174.101 110.624 170.857 110.943 167.614C110.943 167.241 111.102 166.976 111.368 166.71Z" fill="#FBBC8E"/>
    <path d="M92.337 166.656C92.337 172.346 92.2839 178.036 92.2839 183.725C90.9017 187.075 88.8817 189.84 85.0542 190.691C83.3532 191.063 81.6521 191.116 80.0042 190.531C81.0142 189.415 82.5026 188.883 83.5126 187.713C85.0011 185.905 85.9048 183.938 85.9579 181.598C85.9579 176.44 85.9048 171.283 85.9579 166.125C86.0111 162.137 84.31 159.159 80.8547 157.192C80.4826 156.979 80.1636 156.766 80.0042 156.394C80.4294 155.703 81.1205 155.543 81.8647 155.49C86.7022 154.905 91.5928 158.468 92.6028 163.2C92.8154 164.37 92.6028 165.54 92.337 166.656Z" fill="#F9A367"/>
    <path d="M60.8669 184.204C61.877 183.087 63.3654 182.555 64.3754 181.386C65.8639 179.578 66.7676 177.61 66.8207 175.271C66.8207 170.113 66.7676 164.955 66.8207 159.797C66.8739 155.809 65.1728 152.831 61.7175 150.864C61.3454 150.651 61.0264 150.439 60.8669 150.066C61.4517 149.162 62.4086 149.162 63.3123 149.109C69.6382 148.896 74.3693 154.214 73.6782 160.807C73.5719 161.711 73.5188 162.615 73.1998 163.519C73.1998 166.816 73.1467 170.113 73.1998 173.41C73.1998 175.058 73.1998 176.706 72.7745 178.302C70.0634 183.619 65.8107 185.693 60.8669 184.204Z" fill="#F9A367"/>
    <path d="M143.582 101.944C146.825 101.678 149.855 101.891 152.619 103.965C153.789 104.869 154.055 106.517 155.543 107.049C155.171 107.846 155.596 108.591 155.756 109.335C157.138 115.184 152.726 120.821 146.772 120.98C145.23 121.033 143.635 120.555 142.147 121.352C141.881 121.352 141.562 121.352 141.296 121.352C140.765 120.768 140.871 120.129 141.031 119.491C142.36 114.387 142.519 109.176 143.051 103.965C143.051 103.273 142.997 102.529 143.582 101.944Z" fill="#FBB88E"/>
    <path d="M111.368 166.71C111.368 170.591 111.421 174.42 111.421 178.302C111.368 181.492 111.634 184.629 109.401 187.341C106.849 190.425 102.969 191.701 99.0882 190.531C100.098 189.415 101.587 188.883 102.597 187.713C104.085 185.905 104.989 183.938 105.042 181.598C105.042 177.61 104.989 173.675 105.042 169.687C105.148 165.433 103.5 162.296 99.7261 160.276C99.4603 160.116 99.3008 159.797 99.0882 159.584C101.268 157.776 103.554 158.68 105.733 159.425C107.115 159.903 108.71 160.488 109.029 162.349C110.039 163.679 110.624 165.221 111.368 166.71Z" fill="#F9A367"/>
    <path d="M118.172 184.204C119.182 183.087 120.671 182.555 121.681 181.386C123.169 179.578 124.073 177.61 124.126 175.271C124.126 172.878 124.286 170.485 124.073 168.145C123.807 164.264 121.681 161.552 118.119 159.957C120.192 158.627 124.02 158.946 126.252 160.754C129.017 162.988 130.665 165.699 130.505 169.422C130.346 172.346 130.771 175.324 130.08 178.248C127.316 183.619 123.063 185.693 118.172 184.204Z" fill="#F9A367"/>
    <path d="M55.9232 38.1888C66.5018 38.1888 77.1336 38.1888 87.7122 38.1888C88.2969 38.1888 88.9348 38.1356 89.5196 38.242C91.2207 38.561 92.2839 39.5713 92.2839 41.326C92.2839 43.0808 91.2738 44.1443 89.5728 44.4633C88.9348 44.5696 88.2438 44.5165 87.6059 44.5165C66.3955 44.5165 45.2382 44.5165 24.0278 44.5165C23.8152 44.5165 23.6557 44.5165 23.4431 44.5165C20.8914 44.5165 19.2435 43.1871 19.2967 41.2729C19.3498 39.4118 20.9446 38.1888 23.3899 38.1888C34.1812 38.1888 45.0256 38.1888 55.9232 38.1888Z" fill="#FF9C00"/>
    <path d="M55.7106 57.3313C45.1319 57.3313 34.5001 57.3313 23.9215 57.3313C23.2836 57.3313 22.5925 57.3845 21.9546 57.225C20.3599 56.8528 19.3499 55.7893 19.3499 54.1409C19.3499 52.4394 20.413 51.3227 22.061 50.9505C22.5925 50.8442 23.1241 50.8973 23.6557 50.8973C45.1319 50.8973 66.555 50.8973 88.0312 50.8973C88.5628 50.8973 89.0944 50.8442 89.626 50.9505C91.327 51.3227 92.3371 52.3862 92.2839 54.1409C92.2839 55.7893 91.327 56.8528 89.6791 57.225C89.0412 57.3845 88.3501 57.2782 87.7122 57.2782C77.0273 57.3313 66.3423 57.3313 55.7106 57.3313Z" fill="#FF9C00"/>
    <path d="M47.7367 63.659C56.0295 63.659 64.2691 63.659 72.5619 63.659C74.3693 63.659 75.6983 64.2439 76.2831 65.9986C76.8678 67.8065 75.6451 69.6676 73.7314 69.9867C73.1467 70.093 72.5619 70.0398 71.924 70.0398C55.9232 70.0398 39.8692 70.0398 23.8684 70.0398C23.3368 70.0398 22.8052 70.093 22.2736 69.9867C20.5725 69.774 19.2967 68.3915 19.2967 66.7962C19.2967 65.201 20.6257 63.7653 22.3268 63.659C24.0278 63.5526 25.7821 63.6058 27.4832 63.6058C34.2343 63.659 40.9855 63.659 47.7367 63.659Z" fill="#FF9C00"/>
    <path d="M60.0164 87.1618C60.0164 87.2681 60.0164 87.4277 60.0164 87.534C57.199 88.9697 54.5942 90.9371 51.3515 91.4689C51.2452 91.4689 51.1389 91.4689 51.0325 91.4689C49.2783 88.7038 47.7367 88.438 45.2914 90.5649C44.3345 91.4157 43.484 92.3728 42.0487 92.2665C40.2944 92.1069 39.2313 91.1498 39.0186 89.3951C38.3807 84.769 37.2112 83.0674 34.2343 82.7484C31.1511 82.3762 27.2705 84.9285 25.9947 88.2253C25.6757 89.076 25.6226 90.0332 25.4099 90.9371C25.0378 92.6919 23.762 93.649 21.9546 93.5426C20.3598 93.4363 19.1903 92.2133 19.084 90.5649C18.7651 85.8325 23.071 79.8238 28.3868 77.4842C33.4369 75.3041 38.9655 76.208 42.2613 80.4619C43.9624 82.642 45.2914 83.546 48.0556 82.8547C49.9694 82.3762 51.9894 83.3333 53.531 84.769C54.4879 85.6198 55.4447 86.0983 56.7205 85.9388C58.0495 85.7793 59.0595 86.4705 60.0164 87.1618Z" fill="#FF9C00"/>
    <path d="M108.976 162.349C106.212 159.478 102.916 158.521 99.0351 159.584C95.5266 160.754 93.5597 163.36 92.2839 166.71C92.656 160.648 88.6159 156.926 84.629 156.181C83.0342 155.862 81.4926 155.915 79.951 156.447C76.4425 157.617 74.4756 160.222 73.1998 163.572C73.1467 161.605 73.3593 159.584 73.0403 157.617C72.0835 151.821 66.6081 148.524 60.867 150.119C56.3484 151.874 54.1158 155.118 54.0626 159.903C54.0626 162.881 54.0626 165.806 54.0626 168.783C51.6173 168.783 49.172 168.677 46.7267 168.837C44.9724 168.943 44.494 168.411 44.494 166.657C44.5472 149.8 44.5472 132.998 44.5472 116.141C44.5472 115.397 44.8661 114.546 44.175 113.855C51.2452 111.888 57.2521 107.74 63.5781 104.284C65.9702 102.954 68.3624 101.785 71.2329 101.891C71.6582 102.689 71.1266 103.273 70.8608 103.965C69.1066 108.112 67.3523 112.26 65.4386 116.354C63.6844 120.183 63.6844 123.745 66.5018 127.095C67.1929 127.946 68.0434 128.531 69.0003 129.063C73.253 131.19 77.612 130.126 80.5889 126.138C82.9279 123.054 84.5758 119.598 86.5959 116.354C88.8285 112.845 91.0081 109.282 93.2939 105.826C94.7823 103.486 96.8024 102.104 99.5135 101.731C102.225 101.146 104.936 101.412 107.647 101.412C111.474 101.359 115.249 101.306 119.076 101.412C122.691 101.359 126.359 101.359 129.974 101.412C130.877 101.412 131.834 101.306 132.632 101.997C136.299 102.05 139.967 102.05 143.689 102.104C143.476 108.272 143.104 114.387 141.509 120.395C141.403 120.768 141.403 121.193 141.35 121.565C139.117 129.754 136.087 137.57 131.037 144.536C125.721 151.874 119.289 157.83 111.155 161.924C110.411 162.03 109.773 162.456 108.976 162.349Z" fill="#FDD1B6"/>
    <path d="M132.525 101.838C128.007 101.838 123.435 101.838 118.916 101.838C118.81 100.827 119.661 100.349 120.139 99.6576C122 97.2116 123.807 94.8188 123.648 91.4689C123.541 90.0863 123.116 89.6078 121.734 89.6078C118.651 89.6078 117.96 90.0863 117.162 93.0641C115.94 97.5307 112.484 99.764 108.55 101.466C108.178 101.625 107.753 101.572 107.434 101.838C104.617 101.944 101.799 101.625 98.9819 102.21C96.2708 102.263 93.5597 102.21 90.9017 102.529C88.5627 102.795 86.7553 104.018 85.4264 106.092C81.3863 112.153 77.7183 118.481 73.8909 124.649C72.6682 126.67 71.3392 128.69 68.7876 129.329C64.1096 127.148 62.4085 121.884 64.6944 116.514C66.8207 111.622 69.0003 106.73 71.1798 101.838C74.0504 94.9251 77.2399 88.1721 81.6521 82.0571C88.4564 72.5922 97.2276 65.4137 107.328 59.7242C112.91 56.5869 118.704 53.8219 124.02 50.2061C135.555 61.7448 147.038 73.2303 158.573 84.769C157.882 84.8221 157.51 85.3007 157.138 85.7261C150.387 93.0109 142.147 97.9029 132.95 101.519C132.791 101.572 132.685 101.731 132.525 101.838Z" fill="#FBBC8E"/>
    <path d="M51.3515 91.522C54.2752 90.2459 56.88 88.3316 60.0164 87.5872C61.1327 90.3522 59.8569 92.426 56.9332 92.3197C55.0726 92.2133 52.9994 93.0641 51.3515 91.522Z" fill="#FF9C00"/>
    <path d="M68.7877 129.329C72.6683 126.829 74.4757 122.682 76.7615 118.96C79.4194 114.546 82.1837 110.239 84.948 105.879C86.1706 103.912 87.8186 102.582 90.0512 102.21C93.0281 101.678 96.005 101.625 98.9819 102.263C96.8024 102.529 95.2076 103.646 93.985 105.454C89.7854 111.675 85.958 118.215 82.0774 124.649C79.8447 128.371 76.7615 130.871 72.0835 130.552C70.8609 130.445 69.7445 130.179 68.7877 129.329Z" fill="#F9A367"/>
    <path d="M107.434 101.838C109.454 100.402 111.846 99.4981 113.707 97.7965C115.461 96.1481 116.684 94.2871 116.95 91.8942C117.162 90.1395 118.279 89.3951 119.873 89.1824C123.913 88.7038 125.03 90.0332 124.02 94.1807C123.382 96.6799 121.734 98.5941 120.139 100.562C119.767 101.04 119.342 101.466 118.97 101.891C115.089 101.838 111.262 101.838 107.434 101.838Z" fill="#F9A367"/>
    </g>
    <defs>
    <clipPath id="clip0_66_58">
    <rect id="2" fill="white"/>
    </clipPath>
    </defs>
    </symbol>

    <symbol id="service-3" viewBox="0 0 191 191" fill="none" xmlns="http://www.w3.org/2000/svg">
    <g clip-path="url(#clip0_66_92)">
    <path d="M134.312 110.606C133.952 111.687 133.746 112.768 133.18 113.746C132.254 115.341 131.02 116.525 129.477 117.451C129.117 117.966 128.499 118.12 127.985 118.275C124.127 119.356 120.783 118.429 118.005 115.547C117.8 115.341 117.645 115.084 117.542 114.775C117.131 112.51 117.028 110.246 116.771 107.981C116.771 107.827 116.771 107.672 116.822 107.518C116.874 107.415 116.925 107.364 117.028 107.312C117.337 107.158 117.697 107.158 118.057 107.158C123.201 107.158 128.294 107.158 133.438 107.158C133.643 107.158 133.901 107.158 134.106 107.209C134.364 107.364 134.106 107.724 134.364 107.827C134.312 108.805 134.312 109.731 134.312 110.606Z" fill="#3CAFD9"/>
    <path d="M117.645 114.878C119.754 117.4 122.378 118.687 125.722 118.532C127.059 118.481 128.294 118.018 129.477 117.503C129.477 129.701 129.477 141.95 129.477 154.148C129.322 154.303 129.117 154.251 128.911 154.251C126.905 154.2 124.95 154.303 122.944 154.2C122.635 153.788 122.738 153.274 122.738 152.81C122.738 143.031 122.738 133.252 122.738 123.473C122.738 121.826 122.789 121.981 121.195 121.981C115.845 121.981 110.495 121.981 105.145 121.981C103.808 121.981 103.808 121.981 103.808 123.319C103.808 133.149 103.808 142.98 103.808 152.81C103.808 153.274 103.911 153.788 103.602 154.2C103.345 154.303 103.036 154.251 102.779 154.251C89.2499 154.251 75.7724 154.251 62.2435 154.251C61.9863 154.251 61.6776 154.354 61.4204 154.148C61.4204 141.899 61.4204 129.649 61.4204 117.4C61.7291 117.297 62.0377 117.4 62.2949 117.554C65.7929 119.201 70.0625 118.275 72.7374 115.341C72.9432 115.135 73.0461 114.878 73.3547 114.826C73.8177 114.929 74.0234 115.341 74.3321 115.65C77.3671 118.687 81.8939 119.253 85.5462 117.04C86.3178 116.576 86.9865 116.062 87.6038 115.393C87.7581 115.238 87.9125 115.032 88.1182 114.981C88.4783 114.981 88.6841 115.29 88.8898 115.547C92.2849 118.944 97.0689 119.356 100.824 116.628C101.544 116.113 102.007 115.341 102.779 114.878C103.088 114.878 103.242 115.084 103.396 115.29C106.997 119.304 112.964 119.459 116.771 115.65C117.028 115.29 117.182 114.878 117.645 114.878Z" fill="#FF9C00"/>
    <path d="M116.925 107.415C116.925 107.466 116.874 107.518 116.874 107.569C116.616 107.672 116.359 107.672 116.154 107.672C112.038 107.672 107.923 107.672 103.808 107.672C103.345 107.672 102.83 107.775 102.47 107.312C102.316 107.106 102.316 106.849 102.316 106.591C102.419 104.636 102.162 102.731 102.162 100.776C102.162 98.9741 101.956 97.2242 102.007 95.4228C102.007 94.6508 101.853 94.4964 101.081 94.4964C97.3776 94.4964 93.6738 94.4964 89.9701 94.4964C89.147 94.4964 89.0442 94.5993 89.0442 95.4743C89.0442 98.9741 88.7355 102.423 88.7355 105.922C88.7355 106.077 88.7355 106.283 88.6841 106.437C88.5298 106.797 88.6326 107.209 88.324 107.518C88.0153 107.672 87.7067 107.672 87.3466 107.672C83.3342 107.672 79.2704 107.672 75.258 107.672C75.0008 107.672 74.6922 107.672 74.4349 107.569C74.3321 107.518 74.2806 107.466 74.2292 107.415C73.972 106.746 74.1777 106.077 74.2806 105.408C74.6407 102.062 75.0008 98.7168 75.3609 95.3713C75.4638 94.5993 75.3609 94.4964 74.5893 94.4964C70.8341 94.4964 67.1303 94.4964 63.3752 94.4964C62.9636 94.4964 62.6035 94.7022 62.192 94.7022C62.192 92.6435 62.192 90.5333 62.192 88.4745C62.192 87.8569 62.3463 87.7025 62.9636 87.7025C69.0337 87.7025 75.1037 87.7025 81.1223 87.7025C96.606 87.7025 112.141 87.7025 127.625 87.7025C129.014 87.7025 128.859 87.5481 128.859 88.8863C128.859 90.3274 128.859 91.82 128.859 93.2611C128.859 93.5699 128.859 93.9302 129.014 94.239C128.654 94.4964 128.242 94.4449 127.831 94.4449C124.23 94.4449 120.629 94.4449 117.028 94.4449C115.948 94.4449 115.896 94.4964 115.999 95.5772C116.411 99.2829 116.771 102.937 117.182 106.643C117.079 106.9 117.079 107.209 116.925 107.415Z" fill="#E7E9ED"/>
    <path d="M116.925 107.415C116.462 103.298 115.999 99.2315 115.536 95.114C115.433 94.1876 115.433 94.1876 116.359 94.1876C120.269 94.1876 124.127 94.1876 128.036 94.1876C128.294 94.1876 128.602 94.239 128.859 94.239C130.3 97.7904 131.74 101.393 133.18 104.944C133.489 105.717 133.746 106.437 134.055 107.209C133.849 107.466 133.541 107.364 133.283 107.364C127.831 107.466 122.378 107.415 116.925 107.415Z" fill="#2464B3"/>
    <path d="M62.0377 94.7022C62.192 94.342 62.3978 94.1876 62.8607 94.1876C66.8731 94.1876 70.9369 94.1876 74.9493 94.1876C75.4637 94.1876 75.5666 94.3934 75.5152 94.8567C75.258 97.3786 74.9493 99.8491 74.6921 102.371C74.4864 104.07 74.332 105.768 74.1263 107.466C73.8176 107.724 73.4575 107.724 73.1489 107.724C68.1077 107.724 63.1179 107.724 58.0767 107.724C57.7166 107.724 57.2022 107.878 56.9965 107.312C58.3339 103.967 59.6714 100.621 61.0603 97.2757C61.3689 96.4007 61.6776 95.5257 62.0377 94.7022Z" fill="#2464B3"/>
    <path d="M56.9964 107.261C57.2536 107.569 57.6137 107.415 57.9224 107.415C63.3237 107.415 68.725 107.415 74.1263 107.415H74.1777C74.332 107.621 74.332 107.827 74.332 108.084C74.0748 110.091 73.9205 112.099 73.6633 114.106C73.6118 114.363 73.6118 114.672 73.4061 114.878C71.297 117.4 68.6221 118.687 65.3299 118.532C63.941 118.481 62.7064 117.966 61.4204 117.4C59.4656 116.165 57.9738 114.569 57.2022 112.356C56.6878 110.657 56.4306 108.959 56.9964 107.261Z" fill="#3CAFD9"/>
    <path d="M122.995 154.148C125.156 154.148 127.316 154.148 129.477 154.148C129.271 154.457 128.962 154.303 128.705 154.303C106.534 154.303 84.363 154.303 62.192 154.303C61.9348 154.303 61.6262 154.406 61.4204 154.148C61.8834 154.148 62.3463 154.148 62.7579 154.148C76.3383 154.148 89.9187 154.148 103.499 154.148C103.808 153.891 104.168 153.891 104.528 153.891C110.341 153.891 116.154 153.891 121.966 153.891C122.326 153.891 122.687 153.891 122.995 154.148Z" fill="#FEF5E3"/>
    <path d="M102.573 107.312C102.83 107.569 103.139 107.466 103.448 107.466C107.614 107.466 111.781 107.466 115.896 107.466C116.205 107.466 116.565 107.415 116.874 107.621C117.131 110.04 117.388 112.459 117.645 114.929C115.691 117.297 113.17 118.635 110.032 118.584C107.254 118.532 104.939 117.4 103.139 115.238C103.036 115.135 102.933 115.032 102.83 114.929C102.573 114.724 102.573 114.466 102.573 114.157C102.522 111.944 102.316 109.731 102.419 107.569C102.419 107.415 102.47 107.312 102.573 107.312Z" fill="#F5F7FA"/>
    <path d="M122.995 154.148C116.514 154.148 110.032 154.148 103.55 154.148C103.55 143.752 103.55 133.304 103.55 122.907C103.55 121.723 103.55 121.723 104.682 121.723C110.443 121.723 116.256 121.723 122.018 121.723C122.841 121.723 122.944 121.981 122.944 122.701C122.944 132.892 122.944 143.083 122.944 153.274C122.944 153.531 122.944 153.84 122.995 154.148Z" fill="#F5F7FA"/>
    <path d="M84.1057 144.421C78.9616 144.421 73.869 144.421 68.7249 144.421C68.0562 144.421 67.9019 144.215 67.9019 143.597C67.9019 136.598 67.9019 129.546 67.9019 122.547C67.9019 121.878 68.1076 121.723 68.7249 121.723C78.9616 121.723 89.1984 121.723 99.3837 121.723C100.104 121.723 100.258 121.929 100.258 122.598C100.258 129.598 100.258 136.598 100.258 143.597C100.258 144.318 100.052 144.472 99.3837 144.472C94.291 144.421 89.1984 144.421 84.1057 144.421Z" fill="#F5F7FA"/>
    <path d="M102.522 107.466C102.676 108.033 102.624 108.65 102.676 109.268C102.727 111.121 102.779 113.025 102.882 114.878C100.927 117.297 98.4063 118.584 95.217 118.532C92.5935 118.481 90.4844 117.4 88.684 115.547C88.5297 115.341 88.3239 115.187 88.1696 115.032C87.9638 114.826 87.9638 114.518 87.9124 114.26C87.8095 112.202 88.1181 110.143 88.0667 108.084C88.0667 107.878 88.1182 107.621 88.2725 107.466C88.3239 107.158 88.3754 106.849 88.4268 106.54C88.7354 107.158 89.3013 107.261 89.9186 107.261C93.7252 107.261 97.5318 107.261 101.287 107.261C101.699 107.209 102.11 107.158 102.522 107.466Z" fill="#3CAFD9"/>
    <path d="M88.221 107.466C88.1696 109.68 88.1181 111.893 88.0667 114.106C88.0667 114.415 88.0667 114.724 88.0667 115.032C86.5235 116.834 84.6716 118.069 82.2539 118.429C78.8073 118.944 75.9781 117.812 73.6633 115.29C73.5604 115.187 73.4575 115.084 73.3546 114.929C73.6118 112.459 73.869 109.988 74.1262 107.466C78.8588 107.415 83.5399 107.415 88.221 107.466Z" fill="#F5F7FA"/>
    <path d="M102.522 107.466C98.1491 107.466 93.7766 107.466 89.4042 107.466C88.6326 107.466 88.3239 107.261 88.3753 106.489C88.4782 102.577 88.6326 98.6653 88.7354 94.7537C88.7354 94.342 88.8898 94.1876 89.3013 94.1876C93.3651 94.1876 97.4289 94.1876 101.493 94.1876C101.956 94.1876 102.11 94.342 102.11 94.8052C102.162 96.4522 102.213 98.1506 102.316 99.7976C102.419 102.32 102.47 104.79 102.573 107.312C102.522 107.364 102.522 107.415 102.522 107.466Z" fill="#2464B3"/>
    <path d="M113.221 150.957C111.318 150.957 109.363 150.957 107.46 150.957C106.946 150.957 106.74 150.854 106.74 150.288C106.74 146.943 106.74 143.597 106.74 140.2C106.74 139.737 106.843 139.531 107.357 139.531C111.318 139.531 115.227 139.531 119.188 139.531C119.651 139.531 119.806 139.686 119.806 140.149C119.806 143.546 119.806 146.891 119.806 150.288C119.806 150.803 119.6 150.906 119.137 150.906C117.131 150.957 115.176 150.957 113.221 150.957Z" fill="#2464B3"/>
    <path d="M113.273 125.017C115.227 125.017 117.182 125.017 119.086 125.017C119.6 125.017 119.754 125.172 119.754 125.686C119.754 129.032 119.754 132.326 119.754 135.671C119.754 136.186 119.6 136.392 119.086 136.392C115.176 136.392 111.318 136.392 107.408 136.392C106.843 136.392 106.74 136.186 106.74 135.671C106.74 132.326 106.74 129.032 106.74 125.686C106.74 125.12 106.946 125.017 107.46 125.017C109.363 125.017 111.318 125.017 113.273 125.017Z" fill="#2464B3"/>
    <path d="M84.0029 141.23C79.9905 141.23 75.9267 141.23 71.9143 141.23C71.3485 141.23 71.1427 141.127 71.1427 140.509C71.1941 135.568 71.1427 130.679 71.1427 125.738C71.1427 125.172 71.2456 125.017 71.8629 125.017C80.042 125.017 88.2211 125.017 96.4002 125.017C97.0175 125.017 97.1203 125.223 97.1203 125.738C97.1203 130.679 97.1203 135.568 97.1203 140.509C97.1203 141.178 96.8631 141.23 96.3487 141.23C92.182 141.23 88.0668 141.23 84.0029 141.23Z" fill="#2464B3"/>
    <path d="M95.3714 128.363C95.4228 128.774 95.1656 129.083 94.857 129.444C91.6677 132.635 88.4783 135.826 85.3404 138.965C84.5688 139.737 83.6429 139.737 82.9227 139.068C82.3054 138.451 82.3054 137.421 83.077 136.701C86.2149 133.561 89.3528 130.421 92.4907 127.282C93.0566 126.716 93.7767 126.561 94.4969 126.87C95.1142 127.076 95.3714 127.591 95.3714 128.363Z" fill="#3CAFD9"/>
    <path d="M88.9927 137.936C88.9412 137.37 89.2499 137.009 89.61 136.649C90.5874 135.671 91.5647 134.693 92.5421 133.715C93.3137 132.943 94.2397 132.943 94.9598 133.613C95.5771 134.23 95.5771 135.157 94.9084 135.877C93.8796 136.958 92.8508 137.987 91.7705 139.017C91.2561 139.48 90.6388 139.737 89.9701 139.377C89.3528 139.12 88.9412 138.605 88.9927 137.936Z" fill="#3CAFD9"/>
    <path d="M33.5768 163.222C43.402 163.788 49.3177 170.016 49.3177 179.846C49.3177 181.905 49.2148 183.964 49.3691 185.971C49.472 187.464 49.009 187.927 47.4658 187.927C36.0459 187.875 24.6775 187.875 13.2576 187.875C9.39954 187.875 5.59292 187.824 1.73485 187.927C0.345946 187.978 -0.01414 187.515 0.0373009 186.177C0.140183 182.986 -0.219903 179.743 0.243064 176.604C1.47765 168.523 7.23902 163.685 15.7782 163.222C16.6527 163.016 17.2186 163.634 17.8873 163.942C22.4141 166.413 26.9409 166.413 31.4677 163.942C32.085 163.634 32.7023 163.016 33.5768 163.222Z" fill="#739BD1"/>
    <path d="M175.193 163.222C185.276 163.942 190.934 170.016 190.934 180.103C190.934 182.265 190.883 184.478 190.934 186.64C190.986 187.618 190.677 187.927 189.648 187.927C174.062 187.875 158.475 187.927 142.94 187.927C142.323 187.927 141.654 188.081 141.654 187C141.705 183.552 141.448 180.052 141.86 176.604C142.631 169.707 148.341 163.376 157.395 163.17C158.269 162.964 158.835 163.582 159.504 163.942C164.031 166.464 168.558 166.464 173.084 163.942C173.753 163.634 174.37 163.016 175.193 163.222Z" fill="#2464B3"/>
    <path d="M10.854 147.869C6.6873 142.311 7.20171 136.237 9.15646 130.061C9.31078 129.546 9.61943 129.341 10.1338 129.392C15.9467 129.598 21.8109 128.774 27.6237 129.752C34.0538 130.833 38.4778 136.546 38.5806 142.98C38.5806 144.575 38.5806 146.171 38.5292 147.766C35.5971 148.95 33.2308 147.458 30.9674 146.016C30.0929 145.45 29.4242 144.678 28.8069 143.855C28.0867 142.98 27.4694 143.031 26.8007 143.906C22.7883 149.105 17.0784 148.487 11.5227 148.178C11.2141 148.23 11.0083 148.024 10.854 147.869Z" fill="#4F4336"/>
    <path d="M175.208 163.207C168.983 167.427 163.685 167.427 157.409 163.207C152.728 159.038 152.008 153.634 152.471 147.818C153.037 147.303 153.757 147.355 154.477 147.355C155.763 147.355 157.049 147.303 158.335 147.355C162.09 147.509 165.177 146.171 167.646 143.289C169.292 141.384 169.498 141.384 171.144 143.289C173.099 145.553 175.516 147.046 178.5 147.355C179.066 147.406 179.632 147.458 180.095 147.869C180.197 151.832 180.403 155.744 178.294 159.398C177.522 160.839 176.185 161.869 175.208 163.207Z" fill="#FED7AA"/>
    <path d="M10.8541 147.869C13.8376 147.766 16.8726 148.127 19.8562 147.612C22.8912 147.097 25.1546 145.45 26.9036 143.031C27.5724 142.053 27.881 141.95 28.6012 143.031C31.0189 146.377 34.3111 148.075 38.4778 147.869C38.5807 151.832 38.7865 155.796 36.6774 159.45C35.8029 160.942 34.5169 161.972 33.5395 163.31C27.2637 167.53 22.0682 167.53 15.7924 163.31C11.1113 159.09 10.4425 153.634 10.8541 147.869Z" fill="#FED7AA"/>
    <path d="M180.146 147.869C175.928 148.024 172.584 146.377 170.166 142.928C169.498 141.95 169.24 142.053 168.623 142.98C166.257 146.377 162.965 147.972 158.849 147.921C156.74 147.921 154.631 147.921 152.522 147.869C152.522 145.399 152.265 142.877 152.779 140.406C154.271 133.458 160.701 128.774 167.749 129.444C174.642 130.113 180.043 136.032 180.146 143.031C180.197 144.627 180.146 146.274 180.146 147.869Z" fill="#5D6273"/>
    <path d="M98.5607 187.86C98.6121 189.559 97.2747 190.949 95.6285 191C93.8796 191.052 92.4392 189.662 92.4392 187.912C92.4392 186.213 93.7767 184.875 95.4742 184.875C97.1718 184.824 98.5607 186.162 98.5607 187.86Z" fill="#5E6374"/>
    <path d="M35.9572 94.1876C35.9572 95.886 34.6711 97.2757 33.025 97.3272C31.3275 97.3786 29.8357 95.8346 29.8357 94.1876C29.8871 92.5406 31.276 91.2024 32.9221 91.2024C34.6711 91.2024 35.9572 92.4376 35.9572 94.1876Z" fill="#2464B3"/>
    <path d="M44.805 78.9528C44.7535 80.6513 43.4161 81.9895 41.7699 81.9895C40.0724 81.9895 38.5806 80.4454 38.6835 78.747C38.7864 77.1 40.1753 75.8133 41.8728 75.8133C43.5704 75.8647 44.805 77.2029 44.805 78.9528Z" fill="#2464B3"/>
    <path d="M57.3566 66.3945C57.3566 68.0415 55.9677 69.3797 54.2702 69.3797C52.5726 69.3797 51.2352 68.093 51.1837 66.3945C51.1323 64.6446 52.5726 63.2035 54.3216 63.2549C55.9677 63.3579 57.3566 64.799 57.3566 66.3945Z" fill="#2464B3"/>
    <path d="M152.368 78.8499C152.368 80.4455 150.927 81.938 149.333 81.938C147.584 81.9895 146.195 80.5484 146.246 78.747C146.298 77.0485 147.584 75.7618 149.333 75.7618C150.979 75.8647 152.368 77.2544 152.368 78.8499Z" fill="#2464B3"/>
    <path d="M136.833 63.2549C138.479 63.3064 139.816 64.696 139.816 66.3945C139.816 68.1959 138.376 69.4826 136.576 69.3797C134.878 69.2768 133.592 67.8871 133.695 66.1886C133.746 64.5931 135.238 63.2035 136.833 63.2549Z" fill="#2464B3"/>
    <path d="M161.216 94.239C161.216 95.8346 159.775 97.2757 158.129 97.3271C156.38 97.3271 155.043 95.886 155.094 94.0846C155.146 92.3862 156.483 91.1509 158.232 91.1509C159.878 91.2024 161.216 92.592 161.216 94.239Z" fill="#2464B3"/>
    <path d="M64.7126 178.853C64.7126 180.5 63.3751 181.839 61.6776 181.89C59.98 181.89 58.5911 180.603 58.5397 178.956C58.4882 177.258 59.9286 175.765 61.6776 175.765C63.3237 175.817 64.7126 177.206 64.7126 178.853Z" fill="#2464B3"/>
    <path d="M132.46 178.905C132.409 180.552 131.071 181.89 129.374 181.839C127.676 181.839 126.339 180.5 126.339 178.802C126.339 177.103 127.831 175.611 129.528 175.714C131.123 175.817 132.512 177.309 132.46 178.905Z" fill="#2464B3"/>
    <path d="M77.9844 182.559C79.682 182.559 80.968 183.897 81.0194 185.596C81.0194 187.294 79.7334 188.684 78.0873 188.735C76.3897 188.787 74.8979 187.346 74.8979 185.596C74.9494 183.949 76.3383 182.559 77.9844 182.559Z" fill="#2464B3"/>
    <path d="M113.016 182.559C114.662 182.559 116.051 183.949 116.102 185.544C116.154 187.243 114.662 188.735 112.964 188.684C111.318 188.632 109.981 187.294 110.032 185.596C110.032 183.897 111.37 182.559 113.016 182.559Z" fill="#2464B3"/>
    <path d="M31.379 111.327C31.3275 113.025 29.9901 114.363 28.2925 114.363C26.595 114.312 25.2575 112.974 25.3089 111.224C25.3604 109.525 26.6978 108.187 28.3954 108.187C30.0929 108.238 31.4304 109.628 31.379 111.327Z" fill="#2464B3"/>
    <path d="M162.605 114.363C160.959 114.312 159.621 112.974 159.621 111.275C159.621 109.577 160.959 108.239 162.656 108.239C164.405 108.239 165.794 109.68 165.691 111.43C165.64 113.077 164.251 114.415 162.605 114.363Z" fill="#2464B3"/>
    <g clip-path="url(#clip1_66_92)">
    <path d="M104.349 44.0849C114.403 44.8134 120.046 50.9538 120.046 61.153C120.046 63.3386 119.994 65.5761 120.046 67.7617C120.097 68.7504 119.789 69.0626 118.763 69.0626C103.22 69.0106 87.6774 69.0626 72.1857 69.0626C71.5702 69.0626 70.9033 69.1667 70.9033 68.1259C70.9546 64.6395 70.6981 61.101 71.1085 57.6145C71.878 50.6416 77.5719 44.241 86.6514 44.0849C87.5235 43.8768 88.0878 44.5012 88.7546 44.8655C93.2687 47.4153 97.7829 47.4153 102.297 44.8655C102.913 44.4492 103.477 43.8768 104.349 44.0849Z" fill="#494969"/>
    <path d="M108.863 29.5666C104.657 29.7227 101.322 28.0576 98.9114 24.5711C98.2445 23.5824 97.988 23.6865 97.3725 24.6231C95.0128 28.0576 91.7298 29.6707 87.6261 29.6187C85.5229 29.6187 83.4197 29.6187 81.3166 29.5666C81.3166 27.0689 81.0601 24.5191 81.573 22.0213C83.112 14.9963 89.4728 10.261 96.5517 10.9374C103.426 11.6139 108.812 17.5982 108.914 24.6752C108.966 26.3403 108.914 27.9535 108.863 29.5666Z" fill="#5D6273"/>
    <path d="M92.5506 69.0626C92.5506 69.0106 92.5506 68.9585 92.5506 68.8545C92.5506 68.7504 92.5506 68.5943 92.4993 68.4902C92.5506 67.3974 92.7045 66.3047 92.807 65.1598C93.1661 61.7774 93.5765 58.4471 93.9356 55.0647C93.9869 54.7004 93.9869 54.3362 94.1408 54.024C94.2434 53.9199 94.346 53.8678 94.4485 53.8158C95.1667 53.7638 95.8849 53.6597 96.603 53.8678C96.7056 53.9719 96.7569 54.076 96.7569 54.2321C96.603 56.0014 96.3978 57.7706 96.1926 59.5399C95.8849 62.4019 95.5771 65.2639 95.2693 68.1259C95.218 68.4382 95.218 68.7504 95.0128 69.0106C94.2434 69.0626 93.3713 69.0626 92.5506 69.0626Z" fill="#AD2224"/>
    <path d="M95.0641 69.0626C95.2693 67.2413 95.4745 65.368 95.6796 63.5467C95.8335 62.0376 95.9361 60.4765 96.1413 58.9675C96.2952 57.4064 96.5004 55.8453 96.6543 54.2841C96.7056 54.2841 96.7569 54.2841 96.8082 54.3362C97.0647 55.2728 97.0647 56.2095 97.2186 57.1462C97.6289 60.4765 97.988 63.8069 98.3471 67.1373C98.3984 67.6056 98.5523 68.0739 98.4497 68.5423C98.4497 68.6463 98.3984 68.7504 98.3471 68.8024C98.3471 68.8545 98.3471 68.9585 98.3471 69.0106C97.2186 69.0626 96.1413 69.0626 95.0641 69.0626Z" fill="#C32627"/>
    <path d="M94.2433 54.076C93.9869 53.1393 93.4226 52.4108 92.9609 51.5782C92.9096 51.4742 92.9609 51.3701 93.0635 51.318C93.5252 50.9018 94.0382 50.5895 94.4998 50.2773C94.5511 50.2253 94.6537 50.2253 94.7563 50.2773C95.0641 50.4855 95.1154 50.8497 95.3206 51.1099C95.7309 51.8905 96.1926 52.619 96.5517 53.3995C96.6543 53.5556 96.8082 53.7638 96.6543 53.9719C96.0387 53.9719 95.4232 53.9719 94.8076 53.9719C94.6024 53.9719 94.4485 53.9199 94.2433 54.076Z" fill="#D22E2E"/>
    <path d="M96.6542 53.9719C96.3464 52.9312 95.6796 52.0986 95.2179 51.1619C95.064 50.8497 94.9101 50.5375 94.7562 50.2773C94.8588 49.861 95.1666 49.7569 95.4744 49.7049C95.5257 49.7049 95.5257 49.7049 95.577 49.7049C95.7309 49.7049 95.8848 49.7569 95.9874 49.861C96.5516 50.2773 97.1159 50.6936 97.6801 51.1099C97.834 51.214 97.9879 51.318 98.0392 51.5782C97.9366 51.9945 97.7314 52.3067 97.5263 52.619C97.2185 53.1393 96.962 53.7117 96.7055 54.2841H96.6542C96.6542 54.1801 96.6542 54.076 96.6542 53.9719Z" fill="#E84647"/>
    <path d="M99.1167 52.4629C98.6037 52.0986 98.1421 51.7343 97.6291 51.4221C96.8084 50.5375 95.8337 49.9651 94.9617 49.1845C95.3207 48.7162 95.7824 48.456 96.2441 48.0918C97.3213 47.2592 98.296 46.3225 99.4245 45.594C99.3732 47.8836 99.2193 50.1732 99.1167 52.4629Z" fill="#EDEDED"/>
    <path d="M92.2941 52.4629C92.8071 52.0986 93.2687 51.7343 93.7817 51.4221C94.6025 50.5375 95.5771 49.9651 96.4492 49.1845C96.0901 48.7162 95.6284 48.456 95.1667 48.0918C94.0895 47.2592 93.1149 46.3225 91.9863 45.594C92.0376 47.8836 92.1915 50.1732 92.2941 52.4629Z" fill="#EDEDED"/>
    <path d="M99.1679 69.1147C99.1679 69.0106 99.1679 68.9065 99.1679 68.8024C99.2192 68.126 99.014 67.3974 99.014 66.721C98.9627 63.7549 98.9627 60.7367 98.8601 57.7706C98.8088 55.8453 98.8088 53.9719 98.7575 52.0466C98.7062 50.7456 98.6036 49.3927 98.7062 48.0397C98.6549 45.646 98.501 43.2523 98.6036 40.8066C98.6036 40.7025 98.6549 40.6505 98.7575 40.5984C100.04 41.2749 101.322 41.9514 102.502 42.784C103.169 45.3858 103.836 47.9356 104.451 50.5375C104.554 51.0058 104.349 51.3701 103.938 51.5782C103.22 51.8904 102.502 52.2547 101.784 52.5669C101.22 52.8271 101.22 53.0873 101.63 53.5036C102.451 54.3882 103.22 55.2208 104.041 56.1054C104.4 56.5217 104.503 56.938 104.298 57.4584C102.759 61.153 101.22 64.8476 99.6295 68.5423C99.5269 68.6984 99.4756 69.0106 99.1679 69.1147Z" fill="#61607C"/>
    <path d="M92.1402 69.1147C92.1402 69.0106 92.1402 68.9065 92.1402 68.8024C92.0889 68.126 92.2941 67.3974 92.2941 66.721C92.3454 63.7549 92.3454 60.7367 92.4479 57.7706C92.4992 55.8453 92.4992 53.9719 92.5505 52.0466C92.6018 50.7456 92.7044 49.3927 92.6018 48.0397C92.6531 45.646 92.807 43.2523 92.7044 40.8066C92.7044 40.7025 92.6531 40.6505 92.5505 40.5984C91.2681 41.2749 89.9857 41.9514 88.8059 42.784C88.139 45.3858 87.4722 47.9356 86.8566 50.5375C86.754 51.0058 86.9592 51.3701 87.3696 51.5782C88.0877 51.8904 88.8059 52.2547 89.524 52.5669C90.0883 52.8271 90.0883 53.0873 89.6779 53.5036C88.8572 54.3882 88.0877 55.2208 87.267 56.1054C86.9079 56.5217 86.8053 56.938 87.0105 57.4584C88.5494 61.153 90.0883 64.8476 91.6785 68.5423C91.7298 68.6984 91.8324 69.0106 92.1402 69.1147Z" fill="#61607C"/>
    <path d="M103.99 45.646C97.7829 49.913 92.4993 49.913 86.2411 45.646C81.5731 41.431 80.855 35.9672 81.3166 30.087C81.8809 29.5666 82.599 29.6187 83.3172 29.6187C84.5996 29.6187 85.882 29.5666 87.1645 29.6187C90.9091 29.7748 93.9869 28.4218 96.4492 25.5077C98.0907 23.5824 98.2959 23.5824 99.9374 25.5077C101.887 27.7974 104.298 29.3064 107.273 29.6187C107.837 29.6707 108.401 29.7227 108.863 30.139C108.966 34.1459 109.171 38.1007 107.068 41.7953C106.247 43.2523 104.964 44.2931 103.99 45.646Z" fill="#FED7AA"/>
    </g>
    </g>
    <defs>
    <clipPath id="clip0_66_92">
    <rect fill="white"/>
    </clipPath>
    <clipPath id="clip1_66_92">
    <rect width="49" height="58" fill="white" transform="translate(71 11)"/>
    </clipPath>
    </defs>
    </symbol>

    <symbol xmlns="http://www.w3.org/2000/svg" viewBox="0 0 24 24" id="arrow-right"><path fill="none" d="M0 0h24v24H0z"/><path d="M16.172 11l-5.364-5.364 1.414-1.414L20 12l-7.778 7.778-1.414-1.414L16.172 13H4v-2z"/></symbol>

</svg>